# xmcd
#
# Track frame offsets:
#	150
#	11648
#	26023
#	37363
#	51018
#	64500
#	77908
#	85185
#	98575
#	112570
#	128020
#	140298
#	152713
#	179413
#	189685
#	203943
#
# Disc length: 2910 seconds
#
# Revision: 0
# Processed by: cddbd v1.5.2PL0 Copyright (c) Steve Scherf et al.
# Submitted via: EasyCDDAExtractor 16.0.6.1
#
DISCID=ce0b5c10
DTITLE=Συλλογικός δίσκος - Λαϊκή δισκ. 15-Λαϊκοί ερμηνευτές και δημοτικό τραγο
DTITLE=ύδι
DYEAR=1996
DGENRE=Παραδοσιακή
TTITLE0=Πάλλα Βούλα - Ένα νερό κυρα Βαγγελιώ
TTITLE1=Καζαντζή Μιμίκα - Η Θήβα έχει όμορφες-Σιγά καλέ-Μού παρήγγειλε τ' αηδό
TTITLE1=νι
TTITLE2=Καναρίδης Μανώλης - Αργυρούλα
TTITLE3=Χρυσάφη Άννα-Τρίο Μπελκάντο - Βραχατιώτισσα
TTITLE4=Τζοβάρα Κατερίνα - Εσύ ψαρά μου
TTITLE5=Τιτάκης Παντελής-Στάμου Ρένα - Ναύτη μου καλό ταξίδι
TTITLE6=Χρυσάφη Άννα - Ο τσολιάς
TTITLE7=Γιουλάκης Νίκος - Το μαντήλι σου τινάζεις
TTITLE8=Καζαντζή Μιμίκα - Πουλάκι ξένο-Τούτο το καλοκαιράκι-Πες μου ποια μάννα
TTITLE9=Πάλλα Βούλα - Μαντήλι καλαματιανό
TTITLE10=Μπιλικά Σάντρα-Σταματόπουλος Ι. - Οι σφουγγαράδες
TTITLE11=Δήμα αδελφές - Λεμονάκι μυρωδάτο
TTITLE12=Τρίο Μπελκάντο - Ιτιά-Πουλιά μου διαβατάρικα-Ποιος είδε την αγάπη μου
TTITLE13=Καραθανάση Ξανθίππη - Αραμπάς περνά
TTITLE14=Μαρινέλλα - Ντιρλαντά
TTITLE15=Καζαντζή Μιμίκα - Μαυριδερούλα-Μοσχοϊτιά
EXTD=
EXTT0=
EXTT1=
EXTT2=
EXTT3=
EXTT4=
EXTT5=
EXTT6=
EXTT7=
EXTT8=
EXTT9=
EXTT10=
EXTT11=
EXTT12=
EXTT13=
EXTT14=
EXTT15=
PLAYORDER=
